<?xml version="1.0" encoding="UTF-8"?>
<svg width="269px" height="72px" viewBox="0 0 269 72" version="1.1" xmlns="http://www.w3.org/2000/svg" xmlns:xlink="http://www.w3.org/1999/xlink">
    <!-- Generator: Sketch 52.5 (67469) - http://www.bohemiancoding.com/sketch -->
    <title>_2</title>
    <desc>Created with Sketch.</desc>
    <defs>
        <linearGradient x1="1.11022302e-14%" y1="100%" x2="100%" y2="1.11022302e-14%" id="linearGradient-1">
            <stop stop-color="#90A900" offset="0%"></stop>
            <stop stop-color="#00B8A3" offset="100%"></stop>
        </linearGradient>
    </defs>
    <g id="_2" stroke="none" stroke-width="1" fill="none" fill-rule="evenodd">
        <g id="Group" transform="translate(4.000000, 17.000000)" fill="#4A4A4A">
            <path d="M0.928001347,40 L0.928001347,0.912000666 L19.016001,0.912000666 C25.4560009,0.912000666 29.3760009,4.8880006 29.3760009,10.9360005 C29.3760009,16.8720004 25.9600009,19.1120004 22.376001,19.3360004 L22.376001,19.6720003 C25.7920009,19.7280003 30.8320008,22.1360003 30.8320008,28.8000002 C30.8320008,35.0720001 26.5200009,40 20.752001,40 L0.928001347,40 Z M8.32000122,23.2560003 L8.32000122,33.7280001 L18.624001,33.7280001 C21.424001,33.7280001 23.104001,32.2160001 23.104001,29.4720002 L23.104001,27.5680002 C23.104001,24.8240003 21.424001,23.2560003 18.624001,23.2560003 L8.32000122,23.2560003 Z M8.32000122,7.18400056 L8.32000122,17.2080004 L17.4480011,17.2080004 C20.136001,17.2080004 21.704001,15.6400004 21.704001,13.0640005 L21.704001,11.3280005 C21.704001,8.69600053 20.136001,7.18400056 17.4480011,7.18400056 L8.32000122,7.18400056 Z M45.4480006,24.9360003 L45.4480006,40 L38.0560007,40 L38.0560007,0.912000666 L55.6960004,0.912000666 C62.8080003,0.912000666 67.2320002,5.61600059 67.2320002,13.0080005 C67.2320002,18.3840004 64.7680003,22.4720003 59.9520003,24.0960003 L67.9600002,40 L59.7280003,40 L52.4480005,24.9360003 L45.4480006,24.9360003 Z M45.4480006,18.7200004 L54.9680004,18.7200004 C57.8240004,18.7200004 59.5600003,17.1520004 59.5600003,14.2960004 L59.5600003,11.7200005 C59.5600003,8.86400053 57.8240004,7.35200056 54.9680004,7.35200056 L45.4480006,7.35200056 L45.4480006,18.7200004 Z M91.3679998,40 L73.6160001,40 L73.6160001,34.0640001 L78.768,34.0640001 L78.768,6.84800056 L73.6160001,6.84800056 L73.6160001,0.912000666 L91.3679998,0.912000666 L91.3679998,6.84800056 L86.1599999,6.84800056 L86.1599999,34.0640001 L91.3679998,34.0640001 L91.3679998,40 Z M116.399999,40 L108,40 L95.2319997,0.912000666 L102.792,0.912000666 L108.784,19.9520003 L112.255999,32.9440001 L112.423999,32.9440001 L115.839999,19.9520003 L121.831999,0.912000666 L129.167999,0.912000666 L116.399999,40 Z M160.415999,40 L134.655999,40 L134.655999,0.912000666 L160.415999,0.912000666 L160.415999,7.46400055 L142.047999,7.46400055 L142.047999,16.6480004 L158.287999,16.6480004 L158.287999,23.2000003 L142.047999,23.2000003 L142.047999,33.4480001 L160.415999,33.4480001 L160.415999,40 Z" id="BRIVE"></path>
        </g>
        <g id="Artboard" transform="translate(200.000000, 2.000000)">
            <polygon id="Triangle" fill="url(#linearGradient-1)" transform="translate(34.500000, 34.500000) rotate(90.000000) translate(-34.500000, -34.500000) " points="34.5 0 69 69 34.5 53 -6.1284311e-14 69"></polygon>
            <polygon id="Triangle" fill-opacity="0.3" fill="#FFFFFF" transform="translate(23.038487, 51.750000) rotate(90.000000) translate(-23.038487, -51.750000) " points="17.25 28.7115133 40.2884867 74.7884867 5.78848668 58.7884867"></polygon>
            <polygon id="Triangle" fill-opacity="0.1" fill="#FFFFFF" transform="translate(23.000000, 17.250000) rotate(90.000000) translate(-23.000000, -17.250000) " points="28.75 -5.75 40.25 24.25 5.75 40.25"></polygon>
        </g>
    </g>
</svg>