<?xml version="1.0" encoding="UTF-8"?>
<svg width="56px" height="53px" viewBox="0 0 56 53" version="1.1" xmlns="http://www.w3.org/2000/svg" xmlns:xlink="http://www.w3.org/1999/xlink">
    <!-- Generator: Sketch 52.2 (67145) - http://www.bohemiancoding.com/sketch -->
    <title>noun_Surveillance_1613069</title>
    <desc>Created with Sketch.</desc>
    <g id="Landingpage" stroke="none" stroke-width="1" fill="none" fill-rule="evenodd">
        <g id="Brive-LP" transform="translate(-953.000000, -5577.000000)" fill="#D3D3D3" fill-rule="nonzero">
            <g id="noun_Surveillance_1613069" transform="translate(953.000000, 5577.000000)">
                <path d="M5.64930794,52.9933983 L6.12384156,52.9933983 L7.06147424,52.9933983 L8.90815323,52.9133564 L10.6805077,52.861901 L11.5380986,52.8333146 L11.9611767,52.8333146 C12.1041085,52.8333146 12.2241713,52.8333146 12.4299931,52.8333146 C13.824874,52.7412291 15.1152242,52.0617693 15.9804192,50.9637665 C16.7142479,50.0213186 17.0690919,48.8385053 16.9752246,47.6477485 C16.9123347,47.0760213 16.9123347,46.504294 16.8437274,45.9840222 L20.6742999,45.9554359 L22.9955125,45.9554359 L24.138967,45.9554359 L24.7106943,45.9554359 C24.9050815,45.9554359 25.1623588,45.9554359 25.3853324,45.915415 C27.1764097,45.761805 28.8581921,44.9896405 30.1421031,43.7314169 C30.7400283,43.1426575 31.2416519,42.4635363 31.6285939,41.718937 C31.9877789,40.9984352 32.2345732,40.227203 32.3604048,39.432028 L32.4290121,38.8603008 C32.4290121,38.6716308 32.4290121,38.4772435 32.4290121,38.2885735 C32.4290121,38.0999036 32.4290121,37.9283854 32.4290121,37.7797363 L32.4290121,37.3166372 L32.3489702,35.4928273 C32.2574939,33.3374156 32.1488657,31.4449984 32.028803,29.9013349 C33.1493979,29.5787951 34.1346849,28.9005323 34.8359838,27.9688968 C35.4976368,27.0794636 35.8455042,25.9956454 35.8250719,24.8872869 L35.8250719,24.532816 C35.8250719,24.4184706 35.8250719,24.3498633 35.7907683,24.2526697 L35.7050092,23.7495497 C35.6707055,23.5551625 35.6306846,23.377927 35.596381,23.1778225 C36.7398355,23.1320843 37.8204,23.0806288 38.8037708,23.0234561 L38.975289,23.1034979 C40.0443181,23.5166229 41.2195164,23.5668451 42.3198934,23.2464297 C43.249023,22.958224 44.0918891,22.4434666 44.7726033,21.7485044 C45.5767819,20.9162673 46.2014388,19.9277137 46.6078477,18.84413 C47.6769777,18.7698054 48.648914,18.6783291 49.4950703,18.5697009 C49.5636776,18.6040045 49.6265676,18.6497427 49.6951748,18.6783291 C50.691521,19.1145741 51.8324513,19.0724734 52.7939365,18.5639836 C53.5400466,18.1565827 54.1592733,17.5512045 54.5834428,16.8144983 C54.9251392,16.2417818 55.1794979,15.6213009 55.3381227,14.9735365 C55.5808778,13.9978042 55.6313665,12.9841459 55.4867718,11.9891203 C55.4867718,11.8804921 55.0979973,11.794733 54.6692019,11.8061676 C54.2404064,11.8176021 53.9774119,11.8804921 53.9545428,11.9662512 C53.7954119,12.7531372 53.5499917,13.5200754 53.2227319,14.2531602 C53.0355706,14.6626761 52.7973665,15.0468762 52.5137901,15.3966147 C52.2808196,15.7036996 51.9712935,15.944223 51.6161784,16.0941219 C51.3757892,16.1838494 51.1073097,16.1563673 50.8900848,16.0197974 C50.5502893,15.8090746 50.2691015,15.5160886 50.0725148,15.1679238 C49.5305136,14.1440359 49.2589405,12.9987057 49.2835312,11.8404712 C49.2591937,10.6822637 49.5307519,9.53699624 50.0725148,8.51301867 C50.2612123,8.15368187 50.5387275,7.84861204 50.8786502,7.62684144 C51.0923439,7.49226167 51.3564957,7.46478989 51.5933093,7.5525169 C51.9468928,7.70233746 52.2545857,7.94296909 52.4852038,8.25002413 C52.7691835,8.59947567 53.0074206,8.98372911 53.1941456,9.39347862 C53.5198823,10.1266305 53.7633986,10.8936111 53.9202392,11.6803876 C53.9202392,11.771864 54.3261655,11.8461885 54.7663955,11.8404712 C55.2066255,11.834754 55.4753373,11.7547121 55.4924891,11.6518012 C55.6335122,10.6541386 55.5791414,9.6385708 55.3324055,8.66166775 C55.1725286,8.01160655 54.9162216,7.38914667 54.5720082,6.81498875 C54.144725,6.07674265 53.5213859,5.47121319 52.7710674,5.06550338 C51.8060483,4.55969654 50.6629864,4.52180499 49.6665885,4.96259248 C49.6036985,4.96259248 49.5465258,5.03119975 49.4836358,5.05978611 C48.6317622,4.95687521 47.6483913,4.86539885 46.5678268,4.79107431 C46.1648004,3.72598403 45.5502263,2.75355662 44.7611687,1.93243809 C44.0897971,1.23731354 43.2570824,0.718830792 42.3370452,0.423078161 C41.2417758,0.0931046151 40.0682869,0.133292589 38.9981581,0.53742361 L38.8380745,0.611748151 C34.9903501,0.400209071 29.7533286,0.23440817 23.7730616,0.120062721 L18.4216946,0.0343036347 L15.6373829,0 L14.5739702,0 C14.4481902,0 14.3624311,0 14.1794784,0 C13.5246244,0.0174449788 12.8780683,0.151014952 12.2699094,0.394491798 C11.136467,0.866213672 10.1411395,1.61762689 9.37696957,2.57848987 C8.66793105,3.45866823 8.09019904,4.43696111 7.66178784,5.48286427 C6.05976955,9.5758087 6.05976955,14.1222856 7.66178784,18.21523 C8.09047419,19.2592379 8.66820629,20.2356052 9.37696957,21.1138871 C10.1413082,22.0731985 11.1367264,22.822713 12.2699094,23.2921679 C12.878988,23.5310376 13.5253954,23.6607062 14.1794784,23.6752252 C14.3681484,23.6752252 14.4367557,23.6752252 14.568253,23.6752252 L15.6259484,23.6752252 L18.4331291,23.6352043 L20.8057972,23.5951834 L20.7772108,23.7495497 L20.6914517,24.2526697 C20.6914517,24.3441461 20.6628654,24.4184706 20.6514308,24.5270988 L20.6514308,24.8758524 C20.6281049,25.9810662 20.9719327,27.0628168 21.6290844,27.951745 C22.3224053,28.8975644 23.3063561,29.5903461 24.4305479,29.924204 C24.3104852,31.4678675 24.201857,33.3545674 24.1046634,35.5099791 L24.0703597,36.3904391 L24.0703597,36.6134127 C24.0740875,36.67434 24.0740875,36.7354382 24.0703597,36.7963654 C24.0630283,36.8418062 24.0495652,36.8860421 24.0303388,36.9278627 C23.9564878,37.0901865 23.7969368,37.1965539 23.6186952,37.2022918 L19.7252327,37.0936636 L16.8665965,37.0364909 C16.9180519,36.4647636 16.9637901,35.8930364 17.0095283,35.2241155 C17.0851776,34.0440692 16.722817,32.877594 15.9918538,31.9481184 C15.1215556,30.8511056 13.8274271,30.1739211 12.4299931,30.0842876 C12.2241713,30.0842876 12.1098258,30.0842876 11.966894,30.0842876 L11.5438158,30.0842876 L10.686225,30.0842876 L8.90815323,29.924204 L7.05575696,29.924204 L6.11812428,29.924204 L5.64359067,29.924204 C5.48922431,29.924204 5.34057523,29.924204 5.07186343,29.924204 C3.20971068,29.9932286 1.52166238,31.0382108 0.629542739,32.674212 C0.418352263,33.0701321 0.257039399,33.4906978 0.149291854,33.9262947 C0.0954031645,34.156196 0.0553107001,34.3891141 0.0292291325,34.6238019 C0.0292291325,34.8467755 -0.00507450217,35.1326392 0.000642770275,35.2698537 L0.000642770275,37.31092 C0.000642770275,38.6773481 0.000642770275,40.0552107 0.000642770275,41.4330734 L0.000642770275,45.5552268 L0.000642770275,47.5962931 C0.000642770275,47.7335076 0.000642770275,48.0250885 0.0292291325,48.2480621 C0.0552971734,48.4827518 0.0953897764,48.7156708 0.149291854,48.9455694 C0.259645196,49.4019179 0.42876461,49.8420127 0.652411829,50.2548248 C1.54660222,51.8872298 3.23461806,52.9278471 5.09473252,52.9933983 C5.3462925,53.0048328 5.47778977,52.9991155 5.64930794,52.9933983 Z M44.6239542,7.50106144 C44.6673765,7.49258162 44.7120291,7.49258162 44.7554514,7.50106144 L45.2128332,7.50106144 C45.9255865,7.46294629 46.6021304,7.41911387 47.242465,7.36956418 C46.5030403,8.75902891 46.125521,10.3123633 46.1447486,11.8862094 C46.1263638,13.464991 46.5079324,15.0227352 47.2538995,16.4142892 C46.6097535,16.360928 45.9313038,16.3151898 45.2185505,16.2770746 L44.7611687,16.2770746 C44.7177328,16.2854129 44.6731073,16.2854129 44.6296715,16.2770746 L44.5496296,16.2770746 C44.4260195,16.2327361 44.3102328,16.1690534 44.2065933,16.0884047 C43.8862081,15.8288623 43.6282861,15.5005979 43.4519133,15.1279029 C42.9760588,14.1367252 42.7372651,13.0484524 42.7544061,11.9490994 C42.7381532,10.8516714 42.9769248,9.76545663 43.4519133,8.7760132 C43.6282861,8.40331821 43.8862081,8.07505378 44.2065933,7.81551143 C44.3101792,7.73478132 44.4259795,7.67109117 44.5496296,7.62684144 L44.6239542,7.50106144 Z M41.6967107,2.84720168 C42.2750019,2.96907895 42.8171179,3.22350164 43.2803952,3.59044709 C43.6893082,3.91431578 44.0629902,4.28033252 44.3952633,4.68244613 C44.2766915,4.68583979 44.1583756,4.6953814 44.0407924,4.71103249 C43.545182,4.79105059 43.0696147,4.96574878 42.6400606,5.22558701 C41.874384,5.70308794 41.2412671,6.36569788 40.7990989,7.15230782 C39.9957464,8.58080193 39.5835676,10.1959906 39.604189,11.834754 C39.5850399,13.4740685 39.999217,15.0893594 40.8048162,16.5172001 C41.2447879,17.3035669 41.8760074,17.966249 42.6400606,18.4439209 C43.0699137,18.7020137 43.5455095,18.8747812 44.0407924,18.9527581 C44.1494206,18.9527581 44.263766,18.9527581 44.3723942,18.9527581 C44.032079,19.362372 43.6487261,19.7342243 43.2289397,20.061909 C42.7668969,20.425042 42.2266422,20.6755949 41.6509725,20.7937199 C41.3734402,20.847842 41.0880658,20.847842 40.8105335,20.7937199 C40.6678454,20.7827217 40.5273799,20.7519347 40.3931726,20.7022435 C40.2475457,20.6677014 40.1071845,20.6138643 39.9758117,20.5421599 C38.8609436,20.0218881 37.8432691,18.6783291 37.2143691,17.1117964 C36.8958561,16.2824822 36.6565689,15.4248769 36.49971,14.5504584 C36.3502992,13.643186 36.2719251,12.7256364 36.2653019,11.8061676 C36.2727068,10.8867351 36.3510757,9.96924597 36.49971,9.06187682 C36.6585393,8.18915352 36.8997438,7.3334521 37.2200864,6.50625604 C37.8489863,4.91113703 38.8723781,3.567578 39.9929635,3.07589257 C40.1250412,3.00572471 40.2652009,2.95196482 40.4103244,2.91580895 C40.5471759,2.86951889 40.6893276,2.84070437 40.8334025,2.83004986 C41.119482,2.77871365 41.412896,2.78454307 41.6967107,2.84720168 Z M18.4331291,20.7251126 L15.6488174,20.690809 L14.5854048,20.690809 C14.4787836,20.6973827 14.3718587,20.6973827 14.2652375,20.690809 C13.9661064,20.6753186 13.6719944,20.6075954 13.3962121,20.4907044 C12.2527576,20.0161708 11.1779104,18.6211563 10.5375759,17.060341 C10.2226739,16.2272425 9.98908402,15.3656406 9.84006864,14.4875684 C9.690952,13.6071648 9.61256549,12.7162352 9.60566047,11.8233194 C9.61227069,10.9303896 9.69065928,10.0394364 9.84006864,9.15907045 C9.99580274,8.29989008 10.2331933,7.45753663 10.5490104,6.64347058 C11.1836277,5.07693793 12.2298885,3.67620618 13.4076466,3.21310711 C13.681345,3.09595933 13.9736282,3.02821156 14.2709548,3.01300258 C14.375655,3.00601551 14.4807045,3.00601551 14.5854048,3.01300258 L15.6431002,3.01300258 L18.4274118,2.97869894 L23.7730616,2.87578804 C28.4898113,2.78431168 32.7491793,2.66424896 36.225281,2.51559987 C35.4909509,3.35895039 34.8929492,4.31189512 34.4529265,5.33993246 C34.0125681,6.35990444 33.6810374,7.42348529 33.4638384,8.51301867 C33.2610768,9.60504528 33.1539484,10.712676 33.1436711,11.8233194 C33.1494446,12.9336649 33.2527526,14.0413566 33.4524038,15.1336202 C33.6658595,16.2245871 33.9935491,17.2900575 34.4300574,18.3124236 C34.8679438,19.3407464 35.4619077,20.2953313 36.1909773,21.1424735 L36.2309982,21.1824944 C32.7548966,21.028128 28.5012459,20.9080653 23.7844961,20.816589 L18.4331291,20.7251126 Z M22.8525807,24.7272033 L22.8011253,24.5270988 C22.8011253,24.4584915 22.8011253,24.3555806 22.7611044,24.2698215 L22.6753453,23.7667015 L22.6296071,23.566597 L23.7730616,23.566597 C27.454985,23.4922725 30.8567621,23.4065134 33.8240265,23.2921679 C33.7897229,23.440817 33.7611365,23.6009006 33.7325502,23.7667015 L33.6467911,24.2698215 C33.6467911,24.3498633 33.6467911,24.4584915 33.6067702,24.5270988 L33.561032,24.7272033 C33.4144715,25.2943023 33.1182912,25.8116306 32.7034411,26.2251287 C32.2521989,26.6646805 31.6702801,26.9456068 31.0454321,27.0255468 C30.8779266,27.0371631 30.7098177,27.0371631 30.5423122,27.0255468 L29.7704804,27.0255468 L28.209665,27.0255468 L26.6488496,27.0255468 L25.8770178,27.0255468 C25.7095098,27.0370903 25.5414059,27.0370903 25.3738979,27.0255468 C24.7472633,26.9459941 24.1634081,26.6651015 23.7101716,26.2251287 C23.294312,25.8042591 22.9999702,25.2787899 22.858298,24.7043342 L22.8525807,24.7272033 Z M19.7023636,39.8036507 L21.7777335,39.7521953 L22.7839735,39.7236089 L23.2813762,39.7236089 L23.5272189,39.7236089 C23.6650153,39.7207848 23.8024993,39.7093278 23.9388625,39.6893053 C25.0455044,39.5183555 25.9553042,38.7264515 26.2772269,37.6539563 C26.3499246,37.4049555 26.3883928,37.1472184 26.3915724,36.8878418 C26.3915724,36.7334754 26.3915724,36.7106063 26.3915724,36.61913 L26.3915724,36.3961564 L26.3572687,35.5156964 C26.2657924,33.4631956 26.1685987,31.6565375 26.048536,30.1528949 L26.6717187,30.1528949 L28.2325341,30.1528949 L29.7933495,30.1528949 L30.3993803,30.1528949 C30.2850349,31.6565375 30.182124,33.4689129 30.0963649,35.527131 L30.0277576,37.3166372 L30.0277576,37.7797363 C30.0348992,37.9225789 30.0348992,38.0656891 30.0277576,38.2085317 L29.993454,38.591589 L29.9191295,38.9746462 C29.8006312,39.4913137 29.6080639,39.9881372 29.3474022,40.4497025 C29.0662291,40.920919 28.7154152,41.3469073 28.3068586,41.7132197 C27.4544227,42.475291 26.3671241,42.9231208 25.2252488,42.9824542 L24.7735843,42.9824542 L24.201857,42.9824542 L23.0584025,42.9824542 L20.7371899,42.9824542 C17.6155592,42.9481506 14.3853002,42.936716 11.1607586,42.936716 L10.8806122,42.936716 L10.7376804,42.936716 C10.6427047,42.9236193 10.5489944,42.9025823 10.4575341,42.873826 C9.89572019,42.6877521 9.5039321,42.1782012 9.46844593,41.5874397 C9.4262219,40.7798018 10.0445999,40.089876 10.8520259,40.0437762 L15.4258438,39.9751689 L19.7023636,39.8036507 Z M3.3338126,48.8197894 C3.24549564,48.6380379 3.18019573,48.4459794 3.13942534,48.2480621 C3.13942534,48.1508685 3.11083898,48.0479576 3.09368716,47.950764 C3.07653534,47.8535703 3.09368716,47.7906803 3.09368716,47.5905758 L3.09368716,45.5495095 L3.09368716,41.4273561 L3.09368716,37.3052027 L3.09368716,35.2641364 C3.09368716,35.0640319 3.09368716,35.0125764 3.09368716,34.898231 C3.09368716,34.7838855 3.09368716,34.6981264 3.13942534,34.6009328 C3.18013803,34.4029999 3.24544033,34.2109343 3.3338126,34.0292056 C3.70795689,33.3130431 4.42607442,32.8415081 5.23194705,32.7828402 L8.89100142,32.6913638 L12.3213649,32.5884529 C13.0499248,32.577764 13.7508081,32.8672143 14.2595202,33.3888711 C14.7326027,33.8767976 15.0163739,34.5173098 15.0599384,35.1955292 C15.1056766,35.8415809 15.1514147,36.4247427 15.1971529,36.9736009 L13.0646103,36.9392972 L11.9211558,36.9392972 L11.0292613,36.9392972 C10.9263504,36.9392972 10.8520259,36.9392972 10.686225,36.9392972 C8.49811783,37.0273223 6.68475683,38.664912 6.37486514,40.8327515 C6.06497346,43.0005911 7.34689823,45.0806504 9.42270775,45.7782004 C9.71497825,45.871659 10.0155695,45.9367552 10.3203195,45.9725877 C10.4746859,45.9725877 10.623335,45.9725877 10.7777013,46.0011741 L15.1971529,46.0011741 C15.1514147,46.5214459 15.1056766,47.0645867 15.0656557,47.6649003 C15.0247662,48.3471289 14.7408029,48.9921312 14.2652375,49.482993 C13.7590982,50.0021725 13.0635739,50.2931782 12.3385167,50.2891284 L8.90815323,50.1805002 L5.2433816,50.0833066 C4.43046055,50.0228167 3.70733796,49.5443434 3.3338126,48.8197894 Z" id="Shape"></path>
            </g>
        </g>
    </g>
</svg>