<?xml version="1.0" encoding="UTF-8"?>
<svg width="59px" height="53px" viewBox="0 0 59 53" version="1.1" xmlns="http://www.w3.org/2000/svg" xmlns:xlink="http://www.w3.org/1999/xlink">
    <!-- Generator: Sketch 52.2 (67145) - http://www.bohemiancoding.com/sketch -->
    <title>noun_Heart_1920534</title>
    <desc>Created with Sketch.</desc>
    <g id="Landingpage" stroke="none" stroke-width="1" fill="none" fill-rule="evenodd">
        <g id="Brive-LP" transform="translate(-269.000000, -5577.000000)" fill="#D3D3D3" fill-rule="nonzero">
            <g id="noun_Heart_1920534" transform="translate(269.000000, 5577.000000)">
                <path d="M42.5421073,0.000991114263 C37.4341964,0.00375949072 32.6165581,2.38030633 29.5,6.43467858 C25.2032142,0.839503078 17.8275045,-1.39414909 11.1564359,0.879532945 C4.48536723,3.15321498 -0.000491255103,9.42961296 0,16.4890827 C1.74675089e-15,38.5957077 27.6523101,52.113476 28.8295174,52.678248 L29.5,53 L30.1704826,52.6782677 C31.3476899,52.113476 59,38.5957077 59,16.4890827 C58.9898084,7.38720402 51.6273299,0.0112158819 42.5421073,0.000991114263 Z M29.5,49.5302324 C25.3224526,47.341017 3.10526178,34.8291383 3.10526178,16.4890827 C3.10529711,10.3889431 7.22461004,5.06142859 13.1202953,3.53662271 C19.0159805,2.01181684 25.1946252,4.67596217 28.142056,10.0137963 L29.5,12.4667129 L30.857944,10.0137963 C33.8053748,4.67596217 39.9840195,2.01181684 45.8797047,3.53662271 C51.77539,5.06142859 55.8947029,10.3889431 55.8947382,16.4890827 C55.8947382,34.8291383 33.6775474,47.341017 29.5,49.5302324 Z" id="Shape"></path>
            </g>
        </g>
    </g>
</svg>