<svg height="338" viewBox="0 0 467 338" width="467" xmlns="http://www.w3.org/2000/svg" xmlns:xlink="http://www.w3.org/1999/xlink"><linearGradient id="a" x1="0%" x2="100%" y1="0%" y2="100%"><stop offset="0" stop-color="#90a900"/><stop offset="1" stop-color="#00b8a3"/></linearGradient><filter id="b" height="160.7%" width="138.3%" x="-19.2%" y="-30.4%"><feGaussianBlur in="SourceGraphic" stdDeviation="22.5334821"/></filter><g fill="none" fill-rule="evenodd" transform="translate(36 24)"><path d="m32.135791 33.6977804h329c6.627417 0 12 5.372583 12 12v198.6044396c0 6.627417-5.372583 12-12 12h-329c-6.627417 0-12-5.372583-12-12v-198.6044396c0-6.627417 5.372583-12 12-12z" fill="url(#a)" filter="url(#b)"/><path d="m12 0h369.271582c6.627417 0 12 5.372583 12 12v224c0 6.627417-5.372583 12-12 12h-369.271582c-6.627417 0-12-5.372583-12-12v-224c0-6.627417 5.372583-12 12-12z" fill="url(#a)"/><g fill="#fff"><g><circle cx="351" cy="204" r="19"/><circle cx="322" cy="204" r="19"/></g><path d="m40.4 150.336c-1.1946726 0-2.221329-.228664-3.08-.686s-1.5679972-1.115329-2.128-1.974-.9706654-1.913327-1.232-3.164-.392-2.678659-.392-4.284c0-1.586675.1306654-3.009994.392-4.27s.6719972-2.319329 1.232-3.178 1.269329-1.516664 2.128-1.974 1.8853274-.686 3.08-.686 2.221329.228664 3.08.686 1.5679972 1.115329 2.128 1.974.9706654 1.917994 1.232 3.178.392 2.683325.392 4.27c0 1.605341-.1306654 3.033327-.392 4.284s-.6719972 2.305329-1.232 3.164-1.269329 1.516664-2.128 1.974-1.8853274.686-3.08.686zm0-2.044c.7840039 0 1.4559972-.153998 2.016-.462s1.0126649-.741997 1.358-1.302.6019992-1.236663.77-2.03.252-1.684662.252-2.674v-3.192c0-.970672-.0839992-1.857329-.252-2.66s-.4246649-1.483997-.77-2.044-.7979972-.993998-1.358-1.302-1.2319961-.462-2.016-.462-1.4559972.153998-2.016.462-1.0126649.741997-1.358 1.302-.6019992 1.241329-.77 2.044-.252 1.689328-.252 2.66v3.192c0 .989338.0839992 1.880663.252 2.674s.4246649 1.469997.77 2.03.7979972.993998 1.358 1.302 1.2319961.462 2.016.462zm0-6.412c-.6533366 0-1.1059987-.130665-1.358-.392s-.378-.578665-.378-.952v-.616c0-.373335.1259987-.690665.378-.952s.7046634-.392 1.358-.392 1.1059987.130665 1.358.392.378.578665.378.952v.616c0 .373335-.1259987.690665-.378.952s-.7046634.392-1.358.392zm16.8 8.456c-1.1946726 0-2.221329-.228664-3.08-.686s-1.5679972-1.115329-2.128-1.974-.9706654-1.913327-1.232-3.164-.392-2.678659-.392-4.284c0-1.586675.1306654-3.009994.392-4.27s.6719972-2.319329 1.232-3.178 1.269329-1.516664 2.128-1.974 1.8853274-.686 3.08-.686 2.221329.228664 3.08.686 1.5679972 1.115329 2.128 1.974.9706654 1.917994 1.232 3.178.392 2.683325.392 4.27c0 1.605341-.1306654 3.033327-.392 4.284s-.6719972 2.305329-1.232 3.164-1.269329 1.516664-2.128 1.974-1.8853274.686-3.08.686zm0-2.044c.7840039 0 1.4559972-.153998 2.016-.462s1.0126649-.741997 1.358-1.302.6019992-1.236663.77-2.03.252-1.684662.252-2.674v-3.192c0-.970672-.0839992-1.857329-.252-2.66s-.4246649-1.483997-.77-2.044-.7979972-.993998-1.358-1.302-1.2319961-.462-2.016-.462-1.4559972.153998-2.016.462-1.0126649.741997-1.358 1.302-.6019992 1.241329-.77 2.044-.252 1.689328-.252 2.66v3.192c0 .989338.0839992 1.880663.252 2.674s.4246649 1.469997.77 2.03.7979972.993998 1.358 1.302 1.2319961.462 2.016.462zm0-6.412c-.6533366 0-1.1059987-.130665-1.358-.392s-.378-.578665-.378-.952v-.616c0-.373335.1259987-.690665.378-.952s.7046634-.392 1.358-.392 1.1059987.130665 1.358.392.378.578665.378.952v.616c0 .373335-.1259987.690665-.378.952s-.7046634.392-1.358.392zm16.8 8.456c-1.1946726 0-2.221329-.228664-3.08-.686s-1.5679972-1.115329-2.128-1.974-.9706654-1.913327-1.232-3.164-.392-2.678659-.392-4.284c0-1.586675.1306654-3.009994.392-4.27s.6719972-2.319329 1.232-3.178 1.269329-1.516664 2.128-1.974 1.8853274-.686 3.08-.686 2.221329.228664 3.08.686 1.5679972 1.115329 2.128 1.974.9706654 1.917994 1.232 3.178.392 2.683325.392 4.27c0 1.605341-.1306654 3.033327-.392 4.284s-.6719972 2.305329-1.232 3.164-1.269329 1.516664-2.128 1.974-1.8853274.686-3.08.686zm0-2.044c.7840039 0 1.4559972-.153998 2.016-.462s1.0126649-.741997 1.358-1.302.6019992-1.236663.77-2.03.252-1.684662.252-2.674v-3.192c0-.970672-.0839992-1.857329-.252-2.66s-.4246649-1.483997-.77-2.044-.7979972-.993998-1.358-1.302-1.2319961-.462-2.016-.462-1.4559972.153998-2.016.462-1.0126649.741997-1.358 1.302-.6019992 1.241329-.77 2.044-.252 1.689328-.252 2.66v3.192c0 .989338.0839992 1.880663.252 2.674s.4246649 1.469997.77 2.03.7979972.993998 1.358 1.302 1.2319961.462 2.016.462zm0-6.412c-.6533366 0-1.1059987-.130665-1.358-.392s-.378-.578665-.378-.952v-.616c0-.373335.1259987-.690665.378-.952s.7046634-.392 1.358-.392 1.1059987.130665 1.358.392.378.578665.378.952v.616c0 .373335-.1259987.690665-.378.952s-.7046634.392-1.358.392zm16.8 8.456c-1.1946726 0-2.221329-.228664-3.08-.686s-1.5679972-1.115329-2.128-1.974-.9706654-1.913327-1.232-3.164-.392-2.678659-.392-4.284c0-1.586675.1306654-3.009994.392-4.27s.6719972-2.319329 1.232-3.178 1.269329-1.516664 2.128-1.974 1.8853274-.686 3.08-.686 2.221329.228664 3.08.686 1.5679972 1.115329 2.128 1.974.9706654 1.917994 1.232 3.178.392 2.683325.392 4.27c0 1.605341-.1306654 3.033327-.392 4.284s-.6719972 2.305329-1.232 3.164-1.269329 1.516664-2.128 1.974-1.8853274.686-3.08.686zm0-2.044c.7840039 0 1.4559972-.153998 2.016-.462s1.0126649-.741997 1.358-1.302.6019992-1.236663.77-2.03.252-1.684662.252-2.674v-3.192c0-.970672-.0839992-1.857329-.252-2.66s-.4246649-1.483997-.77-2.044-.7979972-.993998-1.358-1.302-1.2319961-.462-2.016-.462-1.4559972.153998-2.016.462-1.0126649.741997-1.358 1.302-.6019992 1.241329-.77 2.044-.252 1.689328-.252 2.66v3.192c0 .989338.0839992 1.880663.252 2.674s.4246649 1.469997.77 2.03.7979972.993998 1.358 1.302 1.2319961.462 2.016.462zm0-6.412c-.6533366 0-1.1059987-.130665-1.358-.392s-.378-.578665-.378-.952v-.616c0-.373335.1259987-.690665.378-.952s.7046634-.392 1.358-.392 1.1059987.130665 1.358.392.378.578665.378.952v.616c0 .373335-.1259987.690665-.378.952s-.7046634.392-1.358.392zm27.58 8.12v-2.044h5.6v-15.764h-.196l-4.928 4.592-1.372-1.484 5.18-4.844h3.668v17.5h5.152v2.044zm16.8 0v-2.044h5.6v-15.764h-.196l-4.928 4.592-1.372-1.484 5.18-4.844h3.668v17.5h5.152v2.044zm16.8 0v-2.044h5.6v-15.764h-.196l-4.928 4.592-1.372-1.484 5.18-4.844h3.668v17.5h5.152v2.044zm16.8 0v-2.044h5.6v-15.764h-.196l-4.928 4.592-1.372-1.484 5.18-4.844h3.668v17.5h5.152v2.044zm46.256 0h-13.048v-2.408l6.524-5.88c.952005-.858671 1.735997-1.740662 2.352-2.646s.924-1.861995.924-2.87v-.336c0-1.176006-.307997-2.085997-.924-2.73s-1.530661-.966-2.744-.966c-1.194673 0-2.113997.30333-2.758.91s-1.124665 1.413995-1.442 2.422l-2.1-.784c.186668-.57867.443332-1.143331.77-1.694s.741997-1.040665 1.246-1.47 1.11533-.774665 1.834-1.036 1.553995-.392 2.506-.392c.970672 0 1.833996.139999 2.59.42s1.390664.671997 1.904 1.176.905332 1.10133 1.176 1.792.406 1.446663.406 2.268c0 .74667-.107332 1.446663-.322 2.1s-.513331 1.278664-.896 1.876-.839997 1.180664-1.372 1.75-1.124663 1.133997-1.778 1.694l-5.46 4.76h10.612zm16.8 0h-13.048v-2.408l6.524-5.88c.952005-.858671 1.735997-1.740662 2.352-2.646s.924-1.861995.924-2.87v-.336c0-1.176006-.307997-2.085997-.924-2.73s-1.530661-.966-2.744-.966c-1.194673 0-2.113997.30333-2.758.91s-1.124665 1.413995-1.442 2.422l-2.1-.784c.186668-.57867.443332-1.143331.77-1.694s.741997-1.040665 1.246-1.47 1.11533-.774665 1.834-1.036 1.553995-.392 2.506-.392c.970672 0 1.833996.139999 2.59.42s1.390664.671997 1.904 1.176.905332 1.10133 1.176 1.792.406 1.446663.406 2.268c0 .74667-.107332 1.446663-.322 2.1s-.513331 1.278664-.896 1.876-.839997 1.180664-1.372 1.75-1.124663 1.133997-1.778 1.694l-5.46 4.76h10.612zm16.8 0h-13.048v-2.408l6.524-5.88c.952005-.858671 1.735997-1.740662 2.352-2.646s.924-1.861995.924-2.87v-.336c0-1.176006-.307997-2.085997-.924-2.73s-1.530661-.966-2.744-.966c-1.194673 0-2.113997.30333-2.758.91s-1.124665 1.413995-1.442 2.422l-2.1-.784c.186668-.57867.443332-1.143331.77-1.694s.741997-1.040665 1.246-1.47 1.11533-.774665 1.834-1.036 1.553995-.392 2.506-.392c.970672 0 1.833996.139999 2.59.42s1.390664.671997 1.904 1.176.905332 1.10133 1.176 1.792.406 1.446663.406 2.268c0 .74667-.107332 1.446663-.322 2.1s-.513331 1.278664-.896 1.876-.839997 1.180664-1.372 1.75-1.124663 1.133997-1.778 1.694l-5.46 4.76h10.612zm16.8 0h-13.048v-2.408l6.524-5.88c.952005-.858671 1.735997-1.740662 2.352-2.646s.924-1.861995.924-2.87v-.336c0-1.176006-.307997-2.085997-.924-2.73s-1.530661-.966-2.744-.966c-1.194673 0-2.113997.30333-2.758.91s-1.124665 1.413995-1.442 2.422l-2.1-.784c.186668-.57867.443332-1.143331.77-1.694s.741997-1.040665 1.246-1.47 1.11533-.774665 1.834-1.036 1.553995-.392 2.506-.392c.970672 0 1.833996.139999 2.59.42s1.390664.671997 1.904 1.176.905332 1.10133 1.176 1.792.406 1.446663.406 2.268c0 .74667-.107332 1.446663-.322 2.1s-.513331 1.278664-.896 1.876-.839997 1.180664-1.372 1.75-1.124663 1.133997-1.778 1.694l-5.46 4.76h10.612zm26.124-11.256c1.362673 0 2.384663-.30333 3.066-.91s1.022-1.385995 1.022-2.338v-.196c0-1.045339-.33133-1.829331-.994-2.352s-1.525995-.784-2.59-.784c-1.045339 0-1.889997.228664-2.534.686s-1.171331 1.05933-1.582 1.806l-1.764-1.344c.242668-.392002.541332-.779331.896-1.162s.769998-.723332 1.246-1.022 1.026664-.541332 1.652-.728 1.339329-.28 2.142-.28c.840004 0 1.623996.107332 2.352.322s1.362664.531998 1.904.952.965998.937997 1.274 1.554.462 1.315996.462 2.1c0 .63467-.097999 1.203997-.294 1.708s-.466665.942665-.812 1.316-.751331.690665-1.218.952-.961331.457333-1.484.588v.112c.541336.112001 1.063997.293999 1.568.546s.951998.578665 1.344.98.704666.886664.938 1.456c.233335.569336.35 1.217996.35 1.946 0 .840004-.163332 1.609997-.49 2.31s-.783997 1.297331-1.372 1.792-1.297329.881999-2.128 1.162-1.749995.42-2.758.42c-.858671 0-1.61933-.093332-2.282-.28s-1.250664-.438665-1.764-.756-.961331-.671998-1.344-1.064-.723332-.802665-1.022-1.232l1.764-1.344c.261335.392002.531999.746665.812 1.064s.601998.592665.966.826c.364002.233334.779331.415333 1.246.546s1.007997.196 1.624.196c1.38134 0 2.440663-.31733 3.178-.952s1.106-1.539994 1.106-2.716v-.224c0-1.157339-.35933-2.05333-1.078-2.688s-1.796659-.952-3.234-.952h-2.324v-2.016zm16.8 0c1.362673 0 2.384663-.30333 3.066-.91s1.022-1.385995 1.022-2.338v-.196c0-1.045339-.33133-1.829331-.994-2.352s-1.525995-.784-2.59-.784c-1.045339 0-1.889997.228664-2.534.686s-1.171331 1.05933-1.582 1.806l-1.764-1.344c.242668-.392002.541332-.779331.896-1.162s.769998-.723332 1.246-1.022 1.026664-.541332 1.652-.728 1.339329-.28 2.142-.28c.840004 0 1.623996.107332 2.352.322s1.362664.531998 1.904.952.965998.937997 1.274 1.554.462 1.315996.462 2.1c0 .63467-.097999 1.203997-.294 1.708s-.466665.942665-.812 1.316-.751331.690665-1.218.952-.961331.457333-1.484.588v.112c.541336.112001 1.063997.293999 1.568.546s.951998.578665 1.344.98.704665.886664.938 1.456.35 1.217996.35 1.946c0 .840004-.163332 1.609997-.49 2.31s-.783997 1.297331-1.372 1.792-1.297329.881999-2.128 1.162-1.749995.42-2.758.42c-.858671 0-1.61933-.093332-2.282-.28s-1.250664-.438665-1.764-.756-.961331-.671998-1.344-1.064-.723332-.802665-1.022-1.232l1.764-1.344c.261335.392002.531999.746665.812 1.064s.601998.592665.966.826c.364002.233334.779331.415333 1.246.546s1.007997.196 1.624.196c1.38134 0 2.440663-.31733 3.178-.952s1.106-1.539994 1.106-2.716v-.224c0-1.157339-.35933-2.05333-1.078-2.688s-1.796659-.952-3.234-.952h-2.324v-2.016zm16.8 0c1.362673 0 2.384663-.30333 3.066-.91s1.022-1.385995 1.022-2.338v-.196c0-1.045339-.33133-1.829331-.994-2.352s-1.525995-.784-2.59-.784c-1.045339 0-1.889997.228664-2.534.686s-1.171331 1.05933-1.582 1.806l-1.764-1.344c.242668-.392002.541332-.779331.896-1.162s.769998-.723332 1.246-1.022 1.026664-.541332 1.652-.728 1.339329-.28 2.142-.28c.840004 0 1.623996.107332 2.352.322s1.362664.531998 1.904.952.965998.937997 1.274 1.554.462 1.315996.462 2.1c0 .63467-.097999 1.203997-.294 1.708s-.466665.942665-.812 1.316-.751331.690665-1.218.952-.961331.457333-1.484.588v.112c.541336.112001 1.063997.293999 1.568.546s.951998.578665 1.344.98.704666.886664.938 1.456c.233335.569336.35 1.217996.35 1.946 0 .840004-.163332 1.609997-.49 2.31s-.783997 1.297331-1.372 1.792-1.297329.881999-2.128 1.162-1.749995.42-2.758.42c-.858671 0-1.61933-.093332-2.282-.28s-1.250664-.438665-1.764-.756-.961331-.671998-1.344-1.064-.723332-.802665-1.022-1.232l1.764-1.344c.261335.392002.531999.746665.812 1.064s.601998.592665.966.826c.364002.233334.779331.415333 1.246.546s1.007997.196 1.624.196c1.38134 0 2.440663-.31733 3.178-.952s1.106-1.539994 1.106-2.716v-.224c0-1.157339-.35933-2.05333-1.078-2.688s-1.796659-.952-3.234-.952h-2.324v-2.016zm16.8 0c1.362673 0 2.384663-.30333 3.066-.91s1.022-1.385995 1.022-2.338v-.196c0-1.045339-.33133-1.829331-.994-2.352s-1.525995-.784-2.59-.784c-1.045339 0-1.889997.228664-2.534.686s-1.171331 1.05933-1.582 1.806l-1.764-1.344c.242668-.392002.541332-.779331.896-1.162s.769998-.723332 1.246-1.022 1.026664-.541332 1.652-.728 1.339329-.28 2.142-.28c.840004 0 1.623996.107332 2.352.322s1.362664.531998 1.904.952.965998.937997 1.274 1.554.462 1.315996.462 2.1c0 .63467-.097999 1.203997-.294 1.708s-.466665.942665-.812 1.316-.751331.690665-1.218.952-.961331.457333-1.484.588v.112c.541336.112001 1.063997.293999 1.568.546s.951998.578665 1.344.98.704666.886664.938 1.456c.233335.569336.35 1.217996.35 1.946 0 .840004-.163332 1.609997-.49 2.31s-.783997 1.297331-1.372 1.792-1.297329.881999-2.128 1.162-1.749995.42-2.758.42c-.858671 0-1.61933-.093332-2.282-.28s-1.250664-.438665-1.764-.756-.961331-.671998-1.344-1.064-.723332-.802665-1.022-1.232l1.764-1.344c.261335.392002.531999.746665.812 1.064s.601998.592665.966.826c.364002.233334.779331.415333 1.246.546s1.007997.196 1.624.196c1.38134 0 2.440663-.31733 3.178-.952s1.106-1.539994 1.106-2.716v-.224c0-1.157339-.35933-2.05333-1.078-2.688s-1.796659-.952-3.234-.952h-2.324v-2.016z"/><path d="m33.408 200.832h3.792c.9600048 0 1.7119973.261331 2.256.784s.816 1.221329.816 2.096c0 .672003-.162665 1.199998-.488 1.584s-.7439974.655999-1.256.816v.048c.6293365.149334 1.1466646.429331 1.552.84s.608 1.005329.608 1.784c0 .448002-.0746659.869331-.224 1.264s-.3599986.735999-.632 1.024-.5919982.514666-.96.68-.7653312.248-1.192.248h-4.272zm3.872 10c.6186698 0 1.1039982-.138665 1.456-.416s.528-.703997.528-1.28v-.656c0-.565336-.1759982-.989332-.528-1.272s-.8373302-.424-1.456-.424h-2.528v4.048zm-.224-5.152c.5653362 0 1.0079984-.125332 1.328-.376s.48-.631997.48-1.144v-.624c0-.512003-.1599984-.895999-.48-1.152s-.7626638-.384-1.328-.384h-2.304v3.68zm7.328 6.32h-1.344v-11.168h4.064c1.0346718 0 1.8239973.282664 2.368.848s.816 1.354662.816 2.368c0 .906671-.2346643 1.631997-.704 2.176s-1.1519955.858666-2.048.944l2.848 4.832h-1.504l-2.72-4.768h-1.776zm2.688-5.904c.5653362 0 1.0053318-.141332 1.32-.424s.472-.685331.472-1.208v-.832c0-.522669-.1573318-.925332-.472-1.208s-.7546638-.424-1.32-.424h-2.688v4.096zm5.472 5.904v-1.072h2.784v-9.024h-2.784v-1.072h6.912v1.072h-2.784v9.024h2.784v1.072zm15.952 0-.944-3.184h-3.92l-.944 3.184h-1.392l3.424-11.168h1.776l3.424 11.168zm-2.832-9.744h-.144l-1.568 5.392h3.28zm7.344.288h-.112v9.456h-1.216v-11.168h1.904l3.808 9.36h.112v-9.36h1.216v11.168h-1.904zm23.872 9.456v-9.136h-.128l-2.352 5.744-2.352-5.744h-.128v9.136h-1.232v-11.168h1.728l1.968 4.928h.096l1.968-4.928h1.664v11.168zm4.944-11.168v6.704c0 .544003.016 1.029331.048 1.456s.117333.791998.256 1.096.354665.535999.648.696.701331.24 1.224.24.930665-.079999 1.224-.24.509333-.391998.648-.696.224-.669331.256-1.096.048-.911997.048-1.456v-6.704h1.344v6.384c0 .832004-.04 1.55733-.12 2.176s-.245332 1.135998-.496 1.552-.607998.727999-1.072.936-1.074663.312-1.832.312-1.367998-.103999-1.832-.312-.821332-.519998-1.072-.936-.416-.93333-.496-1.552-.12-1.343996-.12-2.176v-6.384zm8.416 11.168v-11.168h6.88v1.168h-5.536v3.76h5.344v1.168h-5.344v3.904h5.536v1.168zm10.08 0v-11.168h1.344v10h5.296v1.168zm9.6 0v-11.168h1.344v10h5.296v1.168zm9.12 0v-11.168h6.88v1.168h-5.536v3.76h5.344v1.168h-5.344v3.904h5.536v1.168zm10.944 0h-1.344v-11.168h4.064c1.034672 0 1.823997.282664 2.368.848s.816 1.354662.816 2.368c0 .906671-.234664 1.631997-.704 2.176s-1.151996.858666-2.048.944l2.848 4.832h-1.504l-2.72-4.768h-1.776zm2.688-5.904c.565336 0 1.005332-.141332 1.32-.424s.472-.685331.472-1.208v-.832c0-.522669-.157332-.925332-.472-1.208s-.754664-.424-1.32-.424h-2.688v4.096z"/><g transform="translate(32 32)"><path d="m2.46400067 29v-19.54399967h9.04399983c3.22 0 5.1799999 1.98799997 5.1799999 5.01199987 0 2.968-1.7079999 4.088-3.4999999 4.2v.168c1.708.028 4.2279999 1.232 4.2279999 4.5639999 0 3.1359999-2.1559999 5.5999999-5.0399999 5.5999999zm3.69599994-8.3719999v5.236h5.15199989c1.4 0 2.24-.756 2.24-2.128v-.952c0-1.372-.84-2.156-2.24-2.156zm0-8.0359998v5.0119999h4.56399989c1.344 0 2.128-.784 2.128-2.072v-.868c0-1.3159999-.784-2.0719999-2.128-2.0719999zm18.56399969 8.8759998v7.5319999h-3.6959999v-19.54399967h8.8199998c3.5559999 0 5.7679999 2.35199997 5.7679999 6.04799987 0 2.688-1.232 4.7319999-3.6399999 5.5439999l4.0039999 7.9519999h-4.1159999l-3.64-7.5319999zm0-3.1079999h4.7599999c1.428 0 2.296-.784 2.296-2.212v-1.288c0-1.4279999-.868-2.1839999-2.296-2.1839999h-4.7599999zm22.9599996 10.6399998h-8.8759998v-2.9679999h2.5759999v-13.6079998h-2.5759999v-2.96799997h8.8759998v2.96799997h-2.604v13.6079998h2.604zm12.5159998 0h-4.1999999l-6.3839999-19.54399967h3.7799999l2.996 9.51999987 1.7359999 6.4959999h.084l1.708-6.4959999 2.9959999-9.51999987h3.668zm22.0079996 0h-12.8799998v-19.54399967h12.8799998v3.27599997h-9.1839998v4.5919999h8.1199998v3.2759999h-8.1199998v5.124h9.1839998z"/><path d="m16.75.12721519 16.7924051 33.50000001h-33.58481016z" fill-opacity=".5" transform="matrix(0 1 -1 0 140.127215 1.127215)"/><path d="m8.22658228 8.65063291 16.79240502 16.36835439h-33.58481008z" fill-opacity=".6" transform="matrix(0 1 -1 0 131.561392 9.608228)"/><path d="m8.39620253 14.2481013 11.02531647 21.9658228-16.79240508-16.3683545z" transform="matrix(0 1 -1 0 142.756329 15.205697)"/></g></g></g></svg>