<?xml version="1.0" encoding="UTF-8"?>
<svg width="467px" height="338px" viewBox="0 0 467 338" version="1.1" xmlns="http://www.w3.org/2000/svg" xmlns:xlink="http://www.w3.org/1999/xlink">
    <!-- Generator: Sketch 52.5 (67469) - http://www.bohemiancoding.com/sketch -->
    <title>Kreditkarte</title>
    <desc>Created with Sketch.</desc>
    <defs>
        <linearGradient x1="0%" y1="0%" x2="100%" y2="100%" id="linearGradient-1">
            <stop stop-color="#90A900" offset="0%"></stop>
            <stop stop-color="#00B8A3" offset="100%"></stop>
        </linearGradient>
        <filter x="-19.2%" y="-30.4%" width="138.3%" height="160.7%" filterUnits="objectBoundingBox" id="filter-2">
            <feGaussianBlur stdDeviation="22.5334821" in="SourceGraphic"></feGaussianBlur>
        </filter>
    </defs>
    <g id="Symbols" stroke="none" stroke-width="1" fill="none" fill-rule="evenodd">
        <g id="Kreditkarte_EMBEDED" transform="translate(-24.000000, -15.000000)">
            <g id="Kreditkarte" transform="translate(60.000000, 39.000000)">
                <path d="M32.135791,33.6977804 L361.135791,33.6977804 C367.763208,33.6977804 373.135791,39.0703634 373.135791,45.6977804 L373.135791,244.30222 C373.135791,250.929637 367.763208,256.30222 361.135791,256.30222 L32.135791,256.30222 C25.508374,256.30222 20.135791,250.929637 20.135791,244.30222 L20.135791,45.6977804 C20.135791,39.0703634 25.508374,33.6977804 32.135791,33.6977804 Z" id="Rectangle-8" fill="url(#linearGradient-1)" filter="url(#filter-2)"></path>
                <path d="M12,0 L381.271582,0 C387.898999,2.8214207e-14 393.271582,5.372583 393.271582,12 L393.271582,236 C393.271582,242.627417 387.898999,248 381.271582,248 L12,248 C5.372583,248 8.11624501e-16,242.627417 0,236 L0,12 C-8.11624501e-16,5.372583 5.372583,1.21743675e-15 12,0 Z" id="Rectangle-8" fill="url(#linearGradient-1)"></path>
                <g id="Group-15" transform="translate(302.000000, 185.000000)" fill="#FFFFFF">
                    <g id="Group" transform="translate(0.500000, 0.000000)">
                        <polygon id="Path" points="39.027027 33.8918919 22.5945946 33.8918919 22.5945946 4.10810811 39.027027 4.10810811"></polygon>
                        <path d="M23.5835836,19 C23.5835836,24.9576875 26.3534755,30.264625 30.6669129,33.684625 C27.5126086,36.1855 23.5316997,37.6781875 19.2052913,37.6781875 C8.96294094,37.6781875 0.66034034,29.3158125 0.66034034,19 C0.66034034,8.6841875 8.96294094,0.3218125 19.2052913,0.3218125 C23.5316997,0.3218125 27.5126086,1.8145 30.6669129,4.315375 C26.3534755,7.735375 23.5835836,13.0423125 23.5835836,19" id="Path" transform="translate(15.663627, 19.000000) scale(-1, 1) rotate(-180.000000) translate(-15.663627, -19.000000) "></path>
                        <path d="M61.6216216,19 C61.6216216,8.6841875 53.277817,0.3218125 42.9846362,0.3218125 C38.6367568,0.3218125 34.6360915,1.8145 31.464948,4.315375 C35.8009771,7.735375 38.5846154,13.0423125 38.5846154,19 C38.5846154,24.9576875 35.8009771,30.264625 31.464948,33.684625 C34.6360915,36.1855 38.6367568,37.6781875 42.9846362,37.6781875 C53.277817,37.6781875 61.6216216,29.3158125 61.6216216,19" id="Path" transform="translate(46.543285, 19.000000) scale(-1, 1) rotate(-180.000000) translate(-46.543285, -19.000000) "></path>
                    </g>
                </g>
                <path d="M40.4,150.336 C39.2053274,150.336 38.178671,150.107336 37.32,149.65 C36.461329,149.192664 35.7520028,148.534671 35.192,147.676 C34.6319972,146.817329 34.2213346,145.762673 33.96,144.512 C33.6986654,143.261327 33.568,141.833341 33.568,140.228 C33.568,138.641325 33.6986654,137.218006 33.96,135.958 C34.2213346,134.697994 34.6319972,133.638671 35.192,132.78 C35.7520028,131.921329 36.461329,131.263336 37.32,130.806 C38.178671,130.348664 39.2053274,130.12 40.4,130.12 C41.5946726,130.12 42.621329,130.348664 43.48,130.806 C44.338671,131.263336 45.0479972,131.921329 45.608,132.78 C46.1680028,133.638671 46.5786654,134.697994 46.84,135.958 C47.1013346,137.218006 47.232,138.641325 47.232,140.228 C47.232,141.833341 47.1013346,143.261327 46.84,144.512 C46.5786654,145.762673 46.1680028,146.817329 45.608,147.676 C45.0479972,148.534671 44.338671,149.192664 43.48,149.65 C42.621329,150.107336 41.5946726,150.336 40.4,150.336 Z M40.4,148.292 C41.1840039,148.292 41.8559972,148.138002 42.416,147.83 C42.9760028,147.521998 43.4286649,147.088003 43.774,146.528 C44.1193351,145.967997 44.3759992,145.291337 44.544,144.498 C44.7120008,143.704663 44.796,142.813338 44.796,141.824 L44.796,138.632 C44.796,137.661328 44.7120008,136.774671 44.544,135.972 C44.3759992,135.169329 44.1193351,134.488003 43.774,133.928 C43.4286649,133.367997 42.9760028,132.934002 42.416,132.626 C41.8559972,132.317998 41.1840039,132.164 40.4,132.164 C39.6159961,132.164 38.9440028,132.317998 38.384,132.626 C37.8239972,132.934002 37.3713351,133.367997 37.026,133.928 C36.6806649,134.488003 36.4240008,135.169329 36.256,135.972 C36.0879992,136.774671 36.004,137.661328 36.004,138.632 L36.004,141.824 C36.004,142.813338 36.0879992,143.704663 36.256,144.498 C36.4240008,145.291337 36.6806649,145.967997 37.026,146.528 C37.3713351,147.088003 37.8239972,147.521998 38.384,147.83 C38.9440028,148.138002 39.6159961,148.292 40.4,148.292 Z M40.4,141.88 C39.7466634,141.88 39.2940013,141.749335 39.042,141.488 C38.7899987,141.226665 38.664,140.909335 38.664,140.536 L38.664,139.92 C38.664,139.546665 38.7899987,139.229335 39.042,138.968 C39.2940013,138.706665 39.7466634,138.576 40.4,138.576 C41.0533366,138.576 41.5059987,138.706665 41.758,138.968 C42.0100013,139.229335 42.136,139.546665 42.136,139.92 L42.136,140.536 C42.136,140.909335 42.0100013,141.226665 41.758,141.488 C41.5059987,141.749335 41.0533366,141.88 40.4,141.88 Z M57.2,150.336 C56.0053274,150.336 54.978671,150.107336 54.12,149.65 C53.261329,149.192664 52.5520028,148.534671 51.992,147.676 C51.4319972,146.817329 51.0213346,145.762673 50.76,144.512 C50.4986654,143.261327 50.368,141.833341 50.368,140.228 C50.368,138.641325 50.4986654,137.218006 50.76,135.958 C51.0213346,134.697994 51.4319972,133.638671 51.992,132.78 C52.5520028,131.921329 53.261329,131.263336 54.12,130.806 C54.978671,130.348664 56.0053274,130.12 57.2,130.12 C58.3946726,130.12 59.421329,130.348664 60.28,130.806 C61.138671,131.263336 61.8479972,131.921329 62.408,132.78 C62.9680028,133.638671 63.3786654,134.697994 63.64,135.958 C63.9013346,137.218006 64.032,138.641325 64.032,140.228 C64.032,141.833341 63.9013346,143.261327 63.64,144.512 C63.3786654,145.762673 62.9680028,146.817329 62.408,147.676 C61.8479972,148.534671 61.138671,149.192664 60.28,149.65 C59.421329,150.107336 58.3946726,150.336 57.2,150.336 Z M57.2,148.292 C57.9840039,148.292 58.6559972,148.138002 59.216,147.83 C59.7760028,147.521998 60.2286649,147.088003 60.574,146.528 C60.9193351,145.967997 61.1759992,145.291337 61.344,144.498 C61.5120008,143.704663 61.596,142.813338 61.596,141.824 L61.596,138.632 C61.596,137.661328 61.5120008,136.774671 61.344,135.972 C61.1759992,135.169329 60.9193351,134.488003 60.574,133.928 C60.2286649,133.367997 59.7760028,132.934002 59.216,132.626 C58.6559972,132.317998 57.9840039,132.164 57.2,132.164 C56.4159961,132.164 55.7440028,132.317998 55.184,132.626 C54.6239972,132.934002 54.1713351,133.367997 53.826,133.928 C53.4806649,134.488003 53.2240008,135.169329 53.056,135.972 C52.8879992,136.774671 52.804,137.661328 52.804,138.632 L52.804,141.824 C52.804,142.813338 52.8879992,143.704663 53.056,144.498 C53.2240008,145.291337 53.4806649,145.967997 53.826,146.528 C54.1713351,147.088003 54.6239972,147.521998 55.184,147.83 C55.7440028,148.138002 56.4159961,148.292 57.2,148.292 Z M57.2,141.88 C56.5466634,141.88 56.0940013,141.749335 55.842,141.488 C55.5899987,141.226665 55.464,140.909335 55.464,140.536 L55.464,139.92 C55.464,139.546665 55.5899987,139.229335 55.842,138.968 C56.0940013,138.706665 56.5466634,138.576 57.2,138.576 C57.8533366,138.576 58.3059987,138.706665 58.558,138.968 C58.8100013,139.229335 58.936,139.546665 58.936,139.92 L58.936,140.536 C58.936,140.909335 58.8100013,141.226665 58.558,141.488 C58.3059987,141.749335 57.8533366,141.88 57.2,141.88 Z M74,150.336 C72.8053274,150.336 71.778671,150.107336 70.92,149.65 C70.061329,149.192664 69.3520028,148.534671 68.792,147.676 C68.2319972,146.817329 67.8213346,145.762673 67.56,144.512 C67.2986654,143.261327 67.168,141.833341 67.168,140.228 C67.168,138.641325 67.2986654,137.218006 67.56,135.958 C67.8213346,134.697994 68.2319972,133.638671 68.792,132.78 C69.3520028,131.921329 70.061329,131.263336 70.92,130.806 C71.778671,130.348664 72.8053274,130.12 74,130.12 C75.1946726,130.12 76.221329,130.348664 77.08,130.806 C77.938671,131.263336 78.6479972,131.921329 79.208,132.78 C79.7680028,133.638671 80.1786654,134.697994 80.44,135.958 C80.7013346,137.218006 80.832,138.641325 80.832,140.228 C80.832,141.833341 80.7013346,143.261327 80.44,144.512 C80.1786654,145.762673 79.7680028,146.817329 79.208,147.676 C78.6479972,148.534671 77.938671,149.192664 77.08,149.65 C76.221329,150.107336 75.1946726,150.336 74,150.336 Z M74,148.292 C74.7840039,148.292 75.4559972,148.138002 76.016,147.83 C76.5760028,147.521998 77.0286649,147.088003 77.374,146.528 C77.7193351,145.967997 77.9759992,145.291337 78.144,144.498 C78.3120008,143.704663 78.396,142.813338 78.396,141.824 L78.396,138.632 C78.396,137.661328 78.3120008,136.774671 78.144,135.972 C77.9759992,135.169329 77.7193351,134.488003 77.374,133.928 C77.0286649,133.367997 76.5760028,132.934002 76.016,132.626 C75.4559972,132.317998 74.7840039,132.164 74,132.164 C73.2159961,132.164 72.5440028,132.317998 71.984,132.626 C71.4239972,132.934002 70.9713351,133.367997 70.626,133.928 C70.2806649,134.488003 70.0240008,135.169329 69.856,135.972 C69.6879992,136.774671 69.604,137.661328 69.604,138.632 L69.604,141.824 C69.604,142.813338 69.6879992,143.704663 69.856,144.498 C70.0240008,145.291337 70.2806649,145.967997 70.626,146.528 C70.9713351,147.088003 71.4239972,147.521998 71.984,147.83 C72.5440028,148.138002 73.2159961,148.292 74,148.292 Z M74,141.88 C73.3466634,141.88 72.8940013,141.749335 72.642,141.488 C72.3899987,141.226665 72.264,140.909335 72.264,140.536 L72.264,139.92 C72.264,139.546665 72.3899987,139.229335 72.642,138.968 C72.8940013,138.706665 73.3466634,138.576 74,138.576 C74.6533366,138.576 75.1059987,138.706665 75.358,138.968 C75.6100013,139.229335 75.736,139.546665 75.736,139.92 L75.736,140.536 C75.736,140.909335 75.6100013,141.226665 75.358,141.488 C75.1059987,141.749335 74.6533366,141.88 74,141.88 Z M90.8,150.336 C89.6053274,150.336 88.578671,150.107336 87.72,149.65 C86.861329,149.192664 86.1520028,148.534671 85.592,147.676 C85.0319972,146.817329 84.6213346,145.762673 84.36,144.512 C84.0986654,143.261327 83.968,141.833341 83.968,140.228 C83.968,138.641325 84.0986654,137.218006 84.36,135.958 C84.6213346,134.697994 85.0319972,133.638671 85.592,132.78 C86.1520028,131.921329 86.861329,131.263336 87.72,130.806 C88.578671,130.348664 89.6053274,130.12 90.8,130.12 C91.9946726,130.12 93.021329,130.348664 93.88,130.806 C94.738671,131.263336 95.4479972,131.921329 96.008,132.78 C96.5680028,133.638671 96.9786654,134.697994 97.24,135.958 C97.5013346,137.218006 97.632,138.641325 97.632,140.228 C97.632,141.833341 97.5013346,143.261327 97.24,144.512 C96.9786654,145.762673 96.5680028,146.817329 96.008,147.676 C95.4479972,148.534671 94.738671,149.192664 93.88,149.65 C93.021329,150.107336 91.9946726,150.336 90.8,150.336 Z M90.8,148.292 C91.5840039,148.292 92.2559972,148.138002 92.816,147.83 C93.3760028,147.521998 93.8286649,147.088003 94.174,146.528 C94.5193351,145.967997 94.7759992,145.291337 94.944,144.498 C95.1120008,143.704663 95.196,142.813338 95.196,141.824 L95.196,138.632 C95.196,137.661328 95.1120008,136.774671 94.944,135.972 C94.7759992,135.169329 94.5193351,134.488003 94.174,133.928 C93.8286649,133.367997 93.3760028,132.934002 92.816,132.626 C92.2559972,132.317998 91.5840039,132.164 90.8,132.164 C90.0159961,132.164 89.3440028,132.317998 88.784,132.626 C88.2239972,132.934002 87.7713351,133.367997 87.426,133.928 C87.0806649,134.488003 86.8240008,135.169329 86.656,135.972 C86.4879992,136.774671 86.404,137.661328 86.404,138.632 L86.404,141.824 C86.404,142.813338 86.4879992,143.704663 86.656,144.498 C86.8240008,145.291337 87.0806649,145.967997 87.426,146.528 C87.7713351,147.088003 88.2239972,147.521998 88.784,147.83 C89.3440028,148.138002 90.0159961,148.292 90.8,148.292 Z M90.8,141.88 C90.1466634,141.88 89.6940013,141.749335 89.442,141.488 C89.1899987,141.226665 89.064,140.909335 89.064,140.536 L89.064,139.92 C89.064,139.546665 89.1899987,139.229335 89.442,138.968 C89.6940013,138.706665 90.1466634,138.576 90.8,138.576 C91.4533366,138.576 91.9059987,138.706665 92.158,138.968 C92.4100013,139.229335 92.536,139.546665 92.536,139.92 L92.536,140.536 C92.536,140.909335 92.4100013,141.226665 92.158,141.488 C91.9059987,141.749335 91.4533366,141.88 90.8,141.88 Z M118.38,150 L118.38,147.956 L123.98,147.956 L123.98,132.192 L123.784,132.192 L118.856,136.784 L117.484,135.3 L122.664,130.456 L126.332,130.456 L126.332,147.956 L131.484,147.956 L131.484,150 L118.38,150 Z M135.18,150 L135.18,147.956 L140.78,147.956 L140.78,132.192 L140.584,132.192 L135.656,136.784 L134.284,135.3 L139.464,130.456 L143.132,130.456 L143.132,147.956 L148.284,147.956 L148.284,150 L135.18,150 Z M151.98,150 L151.98,147.956 L157.58,147.956 L157.58,132.192 L157.384,132.192 L152.456,136.784 L151.084,135.3 L156.264,130.456 L159.932,130.456 L159.932,147.956 L165.084,147.956 L165.084,150 L151.98,150 Z M168.78,150 L168.78,147.956 L174.38,147.956 L174.38,132.192 L174.184,132.192 L169.256,136.784 L167.884,135.3 L173.064,130.456 L176.732,130.456 L176.732,147.956 L181.884,147.956 L181.884,150 L168.78,150 Z M215.036,150 L201.988,150 L201.988,147.592 L208.512,141.712 C209.464005,140.853329 210.247997,139.971338 210.864,139.066 C211.480003,138.160662 211.788,137.204005 211.788,136.196 L211.788,135.86 C211.788,134.683994 211.480003,133.774003 210.864,133.13 C210.247997,132.485997 209.333339,132.164 208.12,132.164 C206.925327,132.164 206.006003,132.46733 205.362,133.074 C204.717997,133.68067 204.237335,134.487995 203.92,135.496 L201.82,134.712 C202.006668,134.13333 202.263332,133.568669 202.59,133.018 C202.916668,132.467331 203.331997,131.977335 203.836,131.548 C204.340003,131.118665 204.95133,130.773335 205.67,130.512 C206.38867,130.250665 207.223995,130.12 208.176,130.12 C209.146672,130.12 210.009996,130.259999 210.766,130.54 C211.522004,130.820001 212.156664,131.211997 212.67,131.716 C213.183336,132.220003 213.575332,132.81733 213.846,133.508 C214.116668,134.19867 214.252,134.954663 214.252,135.776 C214.252,136.52267 214.144668,137.222663 213.93,137.876 C213.715332,138.529337 213.416669,139.154664 213.034,139.752 C212.651331,140.349336 212.194003,140.932664 211.662,141.502 C211.129997,142.071336 210.537337,142.635997 209.884,143.196 L204.424,147.956 L215.036,147.956 L215.036,150 Z M231.836,150 L218.788,150 L218.788,147.592 L225.312,141.712 C226.264005,140.853329 227.047997,139.971338 227.664,139.066 C228.280003,138.160662 228.588,137.204005 228.588,136.196 L228.588,135.86 C228.588,134.683994 228.280003,133.774003 227.664,133.13 C227.047997,132.485997 226.133339,132.164 224.92,132.164 C223.725327,132.164 222.806003,132.46733 222.162,133.074 C221.517997,133.68067 221.037335,134.487995 220.72,135.496 L218.62,134.712 C218.806668,134.13333 219.063332,133.568669 219.39,133.018 C219.716668,132.467331 220.131997,131.977335 220.636,131.548 C221.140003,131.118665 221.75133,130.773335 222.47,130.512 C223.18867,130.250665 224.023995,130.12 224.976,130.12 C225.946672,130.12 226.809996,130.259999 227.566,130.54 C228.322004,130.820001 228.956664,131.211997 229.47,131.716 C229.983336,132.220003 230.375332,132.81733 230.646,133.508 C230.916668,134.19867 231.052,134.954663 231.052,135.776 C231.052,136.52267 230.944668,137.222663 230.73,137.876 C230.515332,138.529337 230.216669,139.154664 229.834,139.752 C229.451331,140.349336 228.994003,140.932664 228.462,141.502 C227.929997,142.071336 227.337337,142.635997 226.684,143.196 L221.224,147.956 L231.836,147.956 L231.836,150 Z M248.636,150 L235.588,150 L235.588,147.592 L242.112,141.712 C243.064005,140.853329 243.847997,139.971338 244.464,139.066 C245.080003,138.160662 245.388,137.204005 245.388,136.196 L245.388,135.86 C245.388,134.683994 245.080003,133.774003 244.464,133.13 C243.847997,132.485997 242.933339,132.164 241.72,132.164 C240.525327,132.164 239.606003,132.46733 238.962,133.074 C238.317997,133.68067 237.837335,134.487995 237.52,135.496 L235.42,134.712 C235.606668,134.13333 235.863332,133.568669 236.19,133.018 C236.516668,132.467331 236.931997,131.977335 237.436,131.548 C237.940003,131.118665 238.55133,130.773335 239.27,130.512 C239.98867,130.250665 240.823995,130.12 241.776,130.12 C242.746672,130.12 243.609996,130.259999 244.366,130.54 C245.122004,130.820001 245.756664,131.211997 246.27,131.716 C246.783336,132.220003 247.175332,132.81733 247.446,133.508 C247.716668,134.19867 247.852,134.954663 247.852,135.776 C247.852,136.52267 247.744668,137.222663 247.53,137.876 C247.315332,138.529337 247.016669,139.154664 246.634,139.752 C246.251331,140.349336 245.794003,140.932664 245.262,141.502 C244.729997,142.071336 244.137337,142.635997 243.484,143.196 L238.024,147.956 L248.636,147.956 L248.636,150 Z M265.436,150 L252.388,150 L252.388,147.592 L258.912,141.712 C259.864005,140.853329 260.647997,139.971338 261.264,139.066 C261.880003,138.160662 262.188,137.204005 262.188,136.196 L262.188,135.86 C262.188,134.683994 261.880003,133.774003 261.264,133.13 C260.647997,132.485997 259.733339,132.164 258.52,132.164 C257.325327,132.164 256.406003,132.46733 255.762,133.074 C255.117997,133.68067 254.637335,134.487995 254.32,135.496 L252.22,134.712 C252.406668,134.13333 252.663332,133.568669 252.99,133.018 C253.316668,132.467331 253.731997,131.977335 254.236,131.548 C254.740003,131.118665 255.35133,130.773335 256.07,130.512 C256.78867,130.250665 257.623995,130.12 258.576,130.12 C259.546672,130.12 260.409996,130.259999 261.166,130.54 C261.922004,130.820001 262.556664,131.211997 263.07,131.716 C263.583336,132.220003 263.975332,132.81733 264.246,133.508 C264.516668,134.19867 264.652,134.954663 264.652,135.776 C264.652,136.52267 264.544668,137.222663 264.33,137.876 C264.115332,138.529337 263.816669,139.154664 263.434,139.752 C263.051331,140.349336 262.594003,140.932664 262.062,141.502 C261.529997,142.071336 260.937337,142.635997 260.284,143.196 L254.824,147.956 L265.436,147.956 L265.436,150 Z M291.56,138.744 C292.922673,138.744 293.944663,138.44067 294.626,137.834 C295.307337,137.22733 295.648,136.448005 295.648,135.496 L295.648,135.3 C295.648,134.254661 295.31667,133.470669 294.654,132.948 C293.99133,132.425331 293.128005,132.164 292.064,132.164 C291.018661,132.164 290.174003,132.392664 289.53,132.85 C288.885997,133.307336 288.358669,133.90933 287.948,134.656 L286.184,133.312 C286.426668,132.919998 286.725332,132.532669 287.08,132.15 C287.434668,131.767331 287.849998,131.426668 288.326,131.128 C288.802002,130.829332 289.352664,130.586668 289.978,130.4 C290.603336,130.213332 291.317329,130.12 292.12,130.12 C292.960004,130.12 293.743996,130.227332 294.472,130.442 C295.200004,130.656668 295.834664,130.973998 296.376,131.394 C296.917336,131.814002 297.341998,132.331997 297.65,132.948 C297.958002,133.564003 298.112,134.263996 298.112,135.048 C298.112,135.68267 298.014001,136.251997 297.818,136.756 C297.621999,137.260003 297.351335,137.698665 297.006,138.072 C296.660665,138.445335 296.254669,138.762665 295.788,139.024 C295.321331,139.285335 294.826669,139.481333 294.304,139.612 L294.304,139.724 C294.845336,139.836001 295.367997,140.017999 295.872,140.27 C296.376003,140.522001 296.823998,140.848665 297.216,141.25 C297.608002,141.651335 297.920666,142.136664 298.154,142.706 C298.387335,143.275336 298.504,143.923996 298.504,144.652 C298.504,145.492004 298.340668,146.261997 298.014,146.962 C297.687332,147.662003 297.230003,148.259331 296.642,148.754 C296.053997,149.248669 295.344671,149.635999 294.514,149.916 C293.683329,150.196001 292.764005,150.336 291.756,150.336 C290.897329,150.336 290.13667,150.242668 289.474,150.056 C288.81133,149.869332 288.223336,149.617335 287.71,149.3 C287.196664,148.982665 286.748669,148.628002 286.366,148.236 C285.983331,147.843998 285.642668,147.433335 285.344,147.004 L287.108,145.66 C287.369335,146.052002 287.639999,146.406665 287.92,146.724 C288.200001,147.041335 288.521998,147.316665 288.886,147.55 C289.250002,147.783334 289.665331,147.965333 290.132,148.096 C290.598669,148.226667 291.139997,148.292 291.756,148.292 C293.13734,148.292 294.196663,147.97467 294.934,147.34 C295.671337,146.70533 296.04,145.800006 296.04,144.624 L296.04,144.4 C296.04,143.242661 295.68067,142.34667 294.962,141.712 C294.24333,141.07733 293.165341,140.76 291.728,140.76 L289.404,140.76 L289.404,138.744 L291.56,138.744 Z M308.36,138.744 C309.722673,138.744 310.744663,138.44067 311.426,137.834 C312.107337,137.22733 312.448,136.448005 312.448,135.496 L312.448,135.3 C312.448,134.254661 312.11667,133.470669 311.454,132.948 C310.79133,132.425331 309.928005,132.164 308.864,132.164 C307.818661,132.164 306.974003,132.392664 306.33,132.85 C305.685997,133.307336 305.158669,133.90933 304.748,134.656 L302.984,133.312 C303.226668,132.919998 303.525332,132.532669 303.88,132.15 C304.234668,131.767331 304.649998,131.426668 305.126,131.128 C305.602002,130.829332 306.152664,130.586668 306.778,130.4 C307.403336,130.213332 308.117329,130.12 308.92,130.12 C309.760004,130.12 310.543996,130.227332 311.272,130.442 C312.000004,130.656668 312.634664,130.973998 313.176,131.394 C313.717336,131.814002 314.141998,132.331997 314.45,132.948 C314.758002,133.564003 314.912,134.263996 314.912,135.048 C314.912,135.68267 314.814001,136.251997 314.618,136.756 C314.421999,137.260003 314.151335,137.698665 313.806,138.072 C313.460665,138.445335 313.054669,138.762665 312.588,139.024 C312.121331,139.285335 311.626669,139.481333 311.104,139.612 L311.104,139.724 C311.645336,139.836001 312.167997,140.017999 312.672,140.27 C313.176003,140.522001 313.623998,140.848665 314.016,141.25 C314.408002,141.651335 314.720665,142.136664 314.954,142.706 C315.187335,143.275336 315.304,143.923996 315.304,144.652 C315.304,145.492004 315.140668,146.261997 314.814,146.962 C314.487332,147.662003 314.030003,148.259331 313.442,148.754 C312.853997,149.248669 312.144671,149.635999 311.314,149.916 C310.483329,150.196001 309.564005,150.336 308.556,150.336 C307.697329,150.336 306.93667,150.242668 306.274,150.056 C305.61133,149.869332 305.023336,149.617335 304.51,149.3 C303.996664,148.982665 303.548669,148.628002 303.166,148.236 C302.783331,147.843998 302.442668,147.433335 302.144,147.004 L303.908,145.66 C304.169335,146.052002 304.439999,146.406665 304.72,146.724 C305.000001,147.041335 305.321998,147.316665 305.686,147.55 C306.050002,147.783334 306.465331,147.965333 306.932,148.096 C307.398669,148.226667 307.939997,148.292 308.556,148.292 C309.93734,148.292 310.996663,147.97467 311.734,147.34 C312.471337,146.70533 312.84,145.800006 312.84,144.624 L312.84,144.4 C312.84,143.242661 312.48067,142.34667 311.762,141.712 C311.04333,141.07733 309.965341,140.76 308.528,140.76 L306.204,140.76 L306.204,138.744 L308.36,138.744 Z M325.16,138.744 C326.522673,138.744 327.544663,138.44067 328.226,137.834 C328.907337,137.22733 329.248,136.448005 329.248,135.496 L329.248,135.3 C329.248,134.254661 328.91667,133.470669 328.254,132.948 C327.59133,132.425331 326.728005,132.164 325.664,132.164 C324.618661,132.164 323.774003,132.392664 323.13,132.85 C322.485997,133.307336 321.958669,133.90933 321.548,134.656 L319.784,133.312 C320.026668,132.919998 320.325332,132.532669 320.68,132.15 C321.034668,131.767331 321.449998,131.426668 321.926,131.128 C322.402002,130.829332 322.952664,130.586668 323.578,130.4 C324.203336,130.213332 324.917329,130.12 325.72,130.12 C326.560004,130.12 327.343996,130.227332 328.072,130.442 C328.800004,130.656668 329.434664,130.973998 329.976,131.394 C330.517336,131.814002 330.941998,132.331997 331.25,132.948 C331.558002,133.564003 331.712,134.263996 331.712,135.048 C331.712,135.68267 331.614001,136.251997 331.418,136.756 C331.221999,137.260003 330.951335,137.698665 330.606,138.072 C330.260665,138.445335 329.854669,138.762665 329.388,139.024 C328.921331,139.285335 328.426669,139.481333 327.904,139.612 L327.904,139.724 C328.445336,139.836001 328.967997,140.017999 329.472,140.27 C329.976003,140.522001 330.423998,140.848665 330.816,141.25 C331.208002,141.651335 331.520666,142.136664 331.754,142.706 C331.987335,143.275336 332.104,143.923996 332.104,144.652 C332.104,145.492004 331.940668,146.261997 331.614,146.962 C331.287332,147.662003 330.830003,148.259331 330.242,148.754 C329.653997,149.248669 328.944671,149.635999 328.114,149.916 C327.283329,150.196001 326.364005,150.336 325.356,150.336 C324.497329,150.336 323.73667,150.242668 323.074,150.056 C322.41133,149.869332 321.823336,149.617335 321.31,149.3 C320.796664,148.982665 320.348669,148.628002 319.966,148.236 C319.583331,147.843998 319.242668,147.433335 318.944,147.004 L320.708,145.66 C320.969335,146.052002 321.239999,146.406665 321.52,146.724 C321.800001,147.041335 322.121998,147.316665 322.486,147.55 C322.850002,147.783334 323.265331,147.965333 323.732,148.096 C324.198669,148.226667 324.739997,148.292 325.356,148.292 C326.73734,148.292 327.796663,147.97467 328.534,147.34 C329.271337,146.70533 329.64,145.800006 329.64,144.624 L329.64,144.4 C329.64,143.242661 329.28067,142.34667 328.562,141.712 C327.84333,141.07733 326.765341,140.76 325.328,140.76 L323.004,140.76 L323.004,138.744 L325.16,138.744 Z M341.96,138.744 C343.322673,138.744 344.344663,138.44067 345.026,137.834 C345.707337,137.22733 346.048,136.448005 346.048,135.496 L346.048,135.3 C346.048,134.254661 345.71667,133.470669 345.054,132.948 C344.39133,132.425331 343.528005,132.164 342.464,132.164 C341.418661,132.164 340.574003,132.392664 339.93,132.85 C339.285997,133.307336 338.758669,133.90933 338.348,134.656 L336.584,133.312 C336.826668,132.919998 337.125332,132.532669 337.48,132.15 C337.834668,131.767331 338.249998,131.426668 338.726,131.128 C339.202002,130.829332 339.752664,130.586668 340.378,130.4 C341.003336,130.213332 341.717329,130.12 342.52,130.12 C343.360004,130.12 344.143996,130.227332 344.872,130.442 C345.600004,130.656668 346.234664,130.973998 346.776,131.394 C347.317336,131.814002 347.741998,132.331997 348.05,132.948 C348.358002,133.564003 348.512,134.263996 348.512,135.048 C348.512,135.68267 348.414001,136.251997 348.218,136.756 C348.021999,137.260003 347.751335,137.698665 347.406,138.072 C347.060665,138.445335 346.654669,138.762665 346.188,139.024 C345.721331,139.285335 345.226669,139.481333 344.704,139.612 L344.704,139.724 C345.245336,139.836001 345.767997,140.017999 346.272,140.27 C346.776003,140.522001 347.223998,140.848665 347.616,141.25 C348.008002,141.651335 348.320666,142.136664 348.554,142.706 C348.787335,143.275336 348.904,143.923996 348.904,144.652 C348.904,145.492004 348.740668,146.261997 348.414,146.962 C348.087332,147.662003 347.630003,148.259331 347.042,148.754 C346.453997,149.248669 345.744671,149.635999 344.914,149.916 C344.083329,150.196001 343.164005,150.336 342.156,150.336 C341.297329,150.336 340.53667,150.242668 339.874,150.056 C339.21133,149.869332 338.623336,149.617335 338.11,149.3 C337.596664,148.982665 337.148669,148.628002 336.766,148.236 C336.383331,147.843998 336.042668,147.433335 335.744,147.004 L337.508,145.66 C337.769335,146.052002 338.039999,146.406665 338.32,146.724 C338.600001,147.041335 338.921998,147.316665 339.286,147.55 C339.650002,147.783334 340.065331,147.965333 340.532,148.096 C340.998669,148.226667 341.539997,148.292 342.156,148.292 C343.53734,148.292 344.596663,147.97467 345.334,147.34 C346.071337,146.70533 346.44,145.800006 346.44,144.624 L346.44,144.4 C346.44,143.242661 346.08067,142.34667 345.362,141.712 C344.64333,141.07733 343.565341,140.76 342.128,140.76 L339.804,140.76 L339.804,138.744 L341.96,138.744 Z" id="0000-1111-2222-3333" fill="#FFFFFF"></path>
                <path d="M33.408,200.832 L37.2,200.832 C38.1600048,200.832 38.9119973,201.093331 39.456,201.616 C40.0000027,202.138669 40.272,202.837329 40.272,203.712 C40.272,204.384003 40.109335,204.911998 39.784,205.296 C39.458665,205.680002 39.0400026,205.951999 38.528,206.112 L38.528,206.16 C39.1573365,206.309334 39.6746646,206.589331 40.08,207 C40.4853354,207.410669 40.688,208.005329 40.688,208.784 C40.688,209.232002 40.6133341,209.653331 40.464,210.048 C40.3146659,210.442669 40.1040014,210.783999 39.832,211.072 C39.5599986,211.360001 39.2400018,211.586666 38.872,211.752 C38.5039982,211.917334 38.1066688,212 37.68,212 L33.408,212 L33.408,200.832 Z M37.28,210.832 C37.8986698,210.832 38.3839982,210.693335 38.736,210.416 C39.0880018,210.138665 39.264,209.712003 39.264,209.136 L39.264,208.48 C39.264,207.914664 39.0880018,207.490668 38.736,207.208 C38.3839982,206.925332 37.8986698,206.784 37.28,206.784 L34.752,206.784 L34.752,210.832 L37.28,210.832 Z M37.056,205.68 C37.6213362,205.68 38.0639984,205.554668 38.384,205.304 C38.7040016,205.053332 38.864,204.672003 38.864,204.16 L38.864,203.536 C38.864,203.023997 38.7040016,202.640001 38.384,202.384 C38.0639984,202.127999 37.6213362,202 37.056,202 L34.752,202 L34.752,205.68 L37.056,205.68 Z M44.384,212 L43.04,212 L43.04,200.832 L47.104,200.832 C48.1386718,200.832 48.9279973,201.114664 49.472,201.68 C50.0160027,202.245336 50.288,203.034662 50.288,204.048 C50.288,204.954671 50.0533357,205.679997 49.584,206.224 C49.1146643,206.768003 48.4320045,207.082666 47.536,207.168 L50.384,212 L48.88,212 L46.16,207.232 L44.384,207.232 L44.384,212 Z M47.072,206.096 C47.6373362,206.096 48.0773318,205.954668 48.392,205.672 C48.7066682,205.389332 48.864,204.986669 48.864,204.464 L48.864,203.632 C48.864,203.109331 48.7066682,202.706668 48.392,202.424 C48.0773318,202.141332 47.6373362,202 47.072,202 L44.384,202 L44.384,206.096 L47.072,206.096 Z M52.544,212 L52.544,210.928 L55.328,210.928 L55.328,201.904 L52.544,201.904 L52.544,200.832 L59.456,200.832 L59.456,201.904 L56.672,201.904 L56.672,210.928 L59.456,210.928 L59.456,212 L52.544,212 Z M68.496,212 L67.552,208.816 L63.632,208.816 L62.688,212 L61.296,212 L64.72,200.832 L66.496,200.832 L69.92,212 L68.496,212 Z M65.664,202.256 L65.52,202.256 L63.952,207.648 L67.232,207.648 L65.664,202.256 Z M73.008,202.544 L72.896,202.544 L72.896,212 L71.68,212 L71.68,200.832 L73.584,200.832 L77.392,210.192 L77.504,210.192 L77.504,200.832 L78.72,200.832 L78.72,212 L76.816,212 L73.008,202.544 Z M96.88,212 L96.88,202.864 L96.752,202.864 L94.4,208.608 L92.048,202.864 L91.92,202.864 L91.92,212 L90.688,212 L90.688,200.832 L92.416,200.832 L94.384,205.76 L94.48,205.76 L96.448,200.832 L98.112,200.832 L98.112,212 L96.88,212 Z M101.824,200.832 L101.824,207.536 C101.824,208.080003 101.84,208.565331 101.872,208.992 C101.904,209.418669 101.989333,209.783998 102.128,210.088 C102.266667,210.392002 102.482665,210.623999 102.776,210.784 C103.069335,210.944001 103.477331,211.024 104,211.024 C104.522669,211.024 104.930665,210.944001 105.224,210.784 C105.517335,210.623999 105.733333,210.392002 105.872,210.088 C106.010667,209.783998 106.096,209.418669 106.128,208.992 C106.16,208.565331 106.176,208.080003 106.176,207.536 L106.176,200.832 L107.52,200.832 L107.52,207.216 C107.52,208.048004 107.48,208.77333 107.4,209.392 C107.32,210.01067 107.154668,210.527998 106.904,210.944 C106.653332,211.360002 106.296002,211.671999 105.832,211.88 C105.367998,212.088001 104.757337,212.192 104,212.192 C103.242663,212.192 102.632002,212.088001 102.168,211.88 C101.703998,211.671999 101.346668,211.360002 101.096,210.944 C100.845332,210.527998 100.68,210.01067 100.6,209.392 C100.52,208.77333 100.48,208.048004 100.48,207.216 L100.48,200.832 L101.824,200.832 Z M110.24,212 L110.24,200.832 L117.12,200.832 L117.12,202 L111.584,202 L111.584,205.76 L116.928,205.76 L116.928,206.928 L111.584,206.928 L111.584,210.832 L117.12,210.832 L117.12,212 L110.24,212 Z M120.32,212 L120.32,200.832 L121.664,200.832 L121.664,210.832 L126.96,210.832 L126.96,212 L120.32,212 Z M129.92,212 L129.92,200.832 L131.264,200.832 L131.264,210.832 L136.56,210.832 L136.56,212 L129.92,212 Z M139.04,212 L139.04,200.832 L145.92,200.832 L145.92,202 L140.384,202 L140.384,205.76 L145.728,205.76 L145.728,206.928 L140.384,206.928 L140.384,210.832 L145.92,210.832 L145.92,212 L139.04,212 Z M149.984,212 L148.64,212 L148.64,200.832 L152.704,200.832 C153.738672,200.832 154.527997,201.114664 155.072,201.68 C155.616003,202.245336 155.888,203.034662 155.888,204.048 C155.888,204.954671 155.653336,205.679997 155.184,206.224 C154.714664,206.768003 154.032004,207.082666 153.136,207.168 L155.984,212 L154.48,212 L151.76,207.232 L149.984,207.232 L149.984,212 Z M152.672,206.096 C153.237336,206.096 153.677332,205.954668 153.992,205.672 C154.306668,205.389332 154.464,204.986669 154.464,204.464 L154.464,203.632 C154.464,203.109331 154.306668,202.706668 153.992,202.424 C153.677332,202.141332 153.237336,202 152.672,202 L149.984,202 L149.984,206.096 L152.672,206.096 Z" id="BRIAN-MUELLER" fill="#FFFFFF"></path>
                <g id="Logo_2_White" transform="translate(34.000000, 34.000000)" fill="#FFFFFF">
                    <g id="Group" transform="translate(0.007435, 7.500000)">
                        <path d="M0.465725583,20 L0.465725583,0.456000333 L9.54334625,0.456000333 C12.7753165,0.456000333 14.7426027,2.4440003 14.7426027,5.46800025 C14.7426027,8.4360002 13.0282532,9.55600018 11.2295916,9.66800018 L11.2295916,9.83600017 C12.943941,9.86400017 15.473309,11.0680002 15.473309,14.4000001 C15.473309,17.536 13.3092941,20 10.414573,20 L0.465725583,20 Z M4.1754653,11.6280001 L4.1754653,16.8640001 L9.34661762,16.8640001 C10.7518221,16.8640001 11.5949447,16.1080001 11.5949447,14.7360001 L11.5949447,13.7840001 C11.5949447,12.4120001 10.7518221,11.6280001 9.34661762,11.6280001 L4.1754653,11.6280001 Z M4.1754653,3.59200028 L4.1754653,8.60400019 L8.75643176,8.60400019 C10.105428,8.60400019 10.8923425,7.82000021 10.8923425,6.53200023 L10.8923425,5.66400024 C10.8923425,4.34800027 10.105428,3.59200028 8.75643176,3.59200028 L4.1754653,3.59200028 Z M22.8084761,12.4680001 L22.8084761,20 L19.0987364,20 L19.0987364,0.456000333 L27.9515244,0.456000333 C31.5207436,0.456000333 33.7409667,2.80800029 33.7409667,6.50400023 C33.7409667,9.19200018 32.5043867,11.2360001 30.0874351,12.0480001 L34.1063198,20 L29.9750188,20 L26.3214872,12.4680001 L22.8084761,12.4680001 Z M22.8084761,9.36000018 L27.5861712,9.36000018 C29.0194797,9.36000018 29.8907065,8.57600019 29.8907065,7.14800022 L29.8907065,5.86000024 C29.8907065,4.43200027 29.0194797,3.67600028 27.5861712,3.67600028 L22.8084761,3.67600028 L22.8084761,9.36000018 Z M45.8538289,20 L36.9448328,20 L36.9448328,17.0320001 L39.5304089,17.0320001 L39.5304089,3.42400028 L36.9448328,3.42400028 L36.9448328,0.456000333 L45.8538289,0.456000333 L45.8538289,3.42400028 L43.2401486,3.42400028 L43.2401486,17.0320001 L45.8538289,17.0320001 L45.8538289,20 Z M58.4163566,20 L54.2007433,20 L47.793011,0.456000333 L51.587063,0.456000333 L54.5942005,9.97600017 L56.336654,16.4720001 L56.4209663,16.4720001 L58.1353157,9.97600017 L61.1424532,0.456000333 L64.8240888,0.456000333 L58.4163566,20 Z M80.5061703,20 L67.5782895,20 L67.5782895,0.456000333 L80.5061703,0.456000333 L80.5061703,3.73200028 L71.2880292,3.73200028 L71.2880292,8.3240002 L79.4382149,8.3240002 L79.4382149,11.6000001 L71.2880292,11.6000001 L71.2880292,16.7240001 L80.5061703,16.7240001 L80.5061703,20 Z" id="BRIVE"></path>
                    </g>
                    <g id="Artboard" transform="translate(98.371747, 0.000000)">
                        <polygon id="Triangle" fill-opacity="0.6" transform="translate(17.250000, 17.250000) rotate(90.000000) translate(-17.250000, -17.250000) " points="17.25 0 34.5 34.5 17.25 26.5 -3.06421555e-14 34.5"></polygon>
                        <polygon id="Triangle" opacity="0.7" transform="translate(11.519243, 25.875000) rotate(90.000000) translate(-11.519243, -25.875000) " points="8.625 14.3557567 20.1442433 37.3942433 2.89424334 29.3942433"></polygon>
                        <polygon id="Triangle" fill-opacity="0.5" transform="translate(11.500000, 8.625000) rotate(90.000000) translate(-11.500000, -8.625000) " points="14.375 -2.875 20.125 12.125 2.875 20.125"></polygon>
                    </g>
                </g>
            </g>
        </g>
    </g>
</svg>