<?xml version="1.0" encoding="UTF-8"?>
<svg width="53px" height="53px" viewBox="0 0 53 53" version="1.1" xmlns="http://www.w3.org/2000/svg" xmlns:xlink="http://www.w3.org/1999/xlink">
    <!-- Generator: Sketch 52.2 (67145) - http://www.bohemiancoding.com/sketch -->
    <title>noun_add_437151 (1)</title>
    <desc>Created with Sketch.</desc>
    <g id="Landingpage" stroke="none" stroke-width="1" fill="none" fill-rule="evenodd">
        <g id="Brive-LP" transform="translate(-613.000000, -5577.000000)" fill="#D3D3D3" fill-rule="nonzero">
            <g id="noun_add_437151-(1)" transform="translate(613.000000, 5577.000000)">
                <path d="M39.4914795,25.2038556 L28.1029573,25.2044444 L28.1023684,13.8147444 C28.1023684,13.4278444 27.9516128,13.0639111 27.6771906,12.7906667 C27.4045351,12.5174222 27.0406017,12.3666667 26.6531128,12.3666667 C25.8545795,12.3672556 25.2044462,13.0168 25.2044462,13.8159222 L25.2044462,25.2044444 L13.8123906,25.2050333 C13.4266684,25.2050333 13.0639128,25.3557889 12.7906684,25.6290333 C12.5168351,25.9028667 12.3660795,26.2668 12.3666684,26.6531111 C12.3660795,27.0400111 12.5168351,27.4033556 12.7906684,27.6771889 C13.0645017,27.9516111 13.4278462,28.1023667 13.8153351,28.1023667 L25.2044462,28.1029556 L25.2038573,39.4914778 C25.2050351,40.2888333 25.8545795,40.9395556 26.6531128,40.9407333 L26.6537017,40.9407333 C27.0406017,40.9407333 27.4045351,40.7905667 27.6783684,40.5167333 C27.9522017,40.2429 28.1029573,39.8789667 28.1017795,39.4920667 L28.1029573,28.1029556 L39.4920684,28.1029556 C39.8807351,28.1017778 40.2440795,27.9510222 40.5173239,27.6783667 C40.7899795,27.4045333 40.9401462,27.0417778 40.9413239,26.6525222 C40.9401462,25.8539889 40.2888351,25.2038556 39.4914795,25.2038556 Z" id="Shape"></path>
                <path d="M45.2475722,7.75331111 C40.2484944,2.75364444 33.5899278,0 26.5002944,0 C19.4106611,0 12.7526833,2.75305556 7.75301667,7.75331111 C-2.58433889,18.0906667 -2.58433889,34.9105111 7.75301667,45.2472778 C12.7526833,50.2463556 19.4106611,53 26.5002944,53 C33.5899278,53 40.2484944,50.2463556 45.2475722,45.2472778 C55.5849278,34.9099222 55.5849278,18.0900778 45.2475722,7.75331111 Z M43.1982389,43.1979444 C38.7450611,47.6505333 32.8161278,50.1026667 26.5002944,50.1026667 C20.18505,50.1026667 14.2549389,47.6505333 9.80235,43.1979444 C0.595661111,33.9894889 0.595661111,19.0081556 9.80235,9.80146667 C14.2555278,5.34887778 20.18505,2.89674444 26.4997056,2.89674444 C32.81495,2.89674444 38.7450611,5.34946667 43.1982389,9.80205556 C52.4043389,19.0093333 52.4043389,33.9912556 43.1982389,43.1979444 Z" id="Shape"></path>
            </g>
        </g>
    </g>
</svg>